<svg width="204" height="889" viewBox="0 0 204 889" fill="none" xmlns="http://www.w3.org/2000/svg">
<g clip-path="url(#clip0_387_2410)">
<path d="M91.8088 887.572C70.0995 864.998 59.0319 834.245 42.1923 808.023C3.06432 742.426 -11.3064 677.163 9.54306 603.272C19.6145 567.71 32.4358 532.499 41.5793 496.659C53.4385 466.094 62.0031 434.255 71.0103 402.946C95.2397 352.411 96.0996 288.366 100.067 235.39C102.033 183.059 88.4119 129.888 68.0817 81.5739C55.1412 55.8005 41.9027 28.9413 28.7664 3.05355C28.5877 0.383957 32.4528 0.392097 34.4449 0.988062C40.0638 2.49022 42.8562 12.1808 46.2106 16.8097C52.4084 27.7983 57.1929 39.1951 62.9566 50.2654C91.8513 104.025 110.555 164.478 110.973 225.21C108.402 271.156 105.992 317.878 96.1762 362.829C78.9023 407.363 67.639 453.138 51.2335 497.998C32.5465 570.306 -6.53889 645.34 15.5366 720.995C32.1464 778.257 63.9953 830.53 96.5083 880.73C102.783 887.016 100.808 891.392 91.8088 887.572Z" fill="#7FA6A7"/>
<path d="M122.892 1.01996C199.113 108.718 204.979 253.089 174.007 377.09C157.636 437.234 131.899 494.103 117.554 554.982C102.298 604.7 91.4008 657.879 105.763 709.157C121.138 762.402 150.331 809.932 182.376 855.299C189.101 864.369 198.126 872.5 204 881.905C201.531 903.686 149.207 822.039 146.602 816.169C112.259 762.769 84.9646 701.148 92.4479 637.208C102.187 545.12 146.764 453.602 168.873 364.101C194.703 252.623 186.76 130.654 131.542 28.271C127.796 20.6785 123.556 13.1188 118.95 5.8611C118.065 4.33445 116.788 2.68536 117.529 0.979101C118.354 -0.572041 120.67 -0.0332753 122.901 1.02803L122.892 1.01996Z" fill="#7FA6A7"/>
<path d="M102.289 409.501C104.272 407.436 108.342 407.705 110.24 409.803C112.088 412.269 109.704 418.808 106.792 419.845C99.3515 421.519 97.6403 413.934 102.289 409.501Z" fill="#7FA6A7"/>
<path d="M63.7651 44.0848C67.9112 36.7291 73.6152 46.6646 75.8713 51.7099C78.3487 55.2693 72.4829 56.4449 69.9289 54.6652C67.5111 52.0446 64.0205 47.3749 63.7651 44.0848Z" fill="#7FA6A7"/>
<path d="M87.6383 406.555C101.83 402.228 87.4339 428.467 83.9093 414.074C84.0711 411.576 85.3141 407.869 87.6383 406.555Z" fill="#7FA6A7"/>
<path d="M126.451 105.42C131.891 99.6566 138.651 113.437 133.117 116.189C126.996 118.646 124.586 109.339 126.451 105.42Z" fill="#7FA6A7"/>
<path d="M96.6951 110.752C100.441 110.237 104.545 111.601 105.285 115.92C105.813 118.156 107.243 120.777 106.639 123.014C105.745 124.826 102.833 124.508 101.233 123.781C99.5216 122.949 98.9682 120.891 98.0743 118.067C97.7678 116.189 95.3585 111.895 96.6951 110.752Z" fill="#7FA6A7"/>
<path d="M139.978 103.021C144.771 99.5265 147.01 102.866 147.623 107.984C147.844 109.707 148.968 111.789 147.947 113.34C141.417 117.667 138.275 107.356 139.978 103.021Z" fill="#7FA6A7"/>
<path d="M75.1648 40.4437C75.5393 38.7619 77.523 38.2639 79.098 38.4843C82.4353 39.015 86.1216 45.5543 86.2578 49.1464C81.32 54.2162 74.3304 45.5135 75.1648 40.4437Z" fill="#7FA6A7"/>
<path d="M89.1351 36.1823C93.4855 34.6066 103.106 45.0809 96.7973 47.1137C91.8254 48.7139 82.767 38.7784 89.1351 36.1823Z" fill="#7FA6A7"/>
<path d="M99.199 32.3458C102.392 30.3457 105.993 31.0477 107.883 34.8112C108.93 36.8114 111.646 39.1545 111.288 41.4077C109.032 43.3426 103.771 42.8691 102.102 40.2729C101.029 38.0279 98.1944 34.7378 99.2075 32.3377L99.199 32.3458Z" fill="#7FA6A7"/>
<path d="M51.0204 563.659C52.987 562.614 57.2438 564.133 57.4141 566.484C57.2864 569.546 56.9458 573.783 54.4684 575.513C47.8534 577.881 47.5725 566.451 51.0204 563.659Z" fill="#7FA6A7"/>
<path d="M128.826 256.983C133.747 250.933 138.932 259.53 135.186 264.722C129.014 270.845 127.217 261.489 128.826 256.983Z" fill="#7FA6A7"/>
<path d="M112.906 184.733C112.574 181.639 115.843 179.19 118.542 181.264C120.321 183.19 121.488 190.309 120.211 192.603C114.915 196.416 113 188.497 112.898 184.733L112.906 184.733Z" fill="#7FA6A7"/>
<path d="M61.3047 490.888C57.5843 487.173 63.1095 476.454 68.2517 481.965C70.8228 485.557 66.4213 495.002 61.3047 490.888Z" fill="#7FA6A7"/>
<path d="M111.101 108.441C116.78 104.498 121.224 113.053 120.313 117.895C119.572 119.797 116.737 119.585 115.085 119.013C112.676 118.18 110.054 110.621 111.11 108.433L111.101 108.441Z" fill="#7FA6A7"/>
<path d="M87.757 490.145C90.5239 483.124 98.0072 486.773 95.5213 493.516C94.7381 496.97 91.9882 498.488 88.9659 496.545C86.778 495.108 86.9482 492.439 87.7655 490.153L87.757 490.145Z" fill="#7FA6A7"/>
<path d="M17.4524 650.654C17.9547 648.458 20.5087 645.242 23.0372 646.703C25.0975 648.124 24.2206 656.867 22.0496 658.255C16.0987 662.108 16.4818 654.23 17.4609 650.654L17.4524 650.654Z" fill="#7FA6A7"/>
<path d="M118.677 413.289C126.16 408.807 125.445 420.188 121.41 423.225C119.656 424.458 115.246 424.229 115.842 421.364C116.421 419.225 117.093 414.988 118.677 413.281L118.677 413.289Z" fill="#7FA6A7"/>
<path d="M108.597 331.446C119.086 323.755 115.663 347.945 107.508 338.712C106.682 336.687 107.227 333.193 108.597 331.446Z" fill="#7FA6A7"/>
<path d="M32.913 647.831C40.5921 643.422 39.3662 663.424 31.3805 657.219C29.0223 654.68 30.1546 649.733 32.913 647.831Z" fill="#7FA6A7"/>
<path d="M153.949 178.349C159.755 174.586 162.76 184.538 160.078 188.105C154.485 192.22 152.348 181.688 153.949 178.349Z" fill="#7FA6A7"/>
<path d="M68.2615 717.6C70.0493 716.571 74.7743 715.444 75.515 718.22C75.9577 720.775 77.5412 724.841 76.2642 726.629C74.885 728 70.7134 727.862 69.8195 725.617C69.1469 723.47 67.2399 719.51 68.27 717.6L68.2615 717.6Z" fill="#7FA6A7"/>
<path d="M40.2595 731.078C35.9517 728.384 36.488 719.314 43.1796 722.033C48.194 724.18 46.7553 734.556 40.2595 731.078Z" fill="#7FA6A7"/>
<path d="M115.724 493.754C121.879 490.823 122.041 500.032 118.737 503.256C116.566 505.951 112.114 504.481 112.488 500.971C112.838 498.66 113.808 495.223 115.732 493.746L115.724 493.754Z" fill="#7FA6A7"/>
<path d="M88.7283 715.386C91.7761 717.566 93.615 728.849 87.0341 726.832C83.3137 724.865 81.4918 712.864 88.7283 715.386Z" fill="#7FA6A7"/>
<path d="M127.242 180.43C128.74 179.116 133.193 178.095 133.142 181.165C132.827 183.214 135.73 190.888 132.41 191.084C130.213 190.978 126.902 190.521 126.825 187.827C126.825 185.614 125.871 182.422 127.251 180.43L127.242 180.43Z" fill="#7FA6A7"/>
<path d="M26.6302 734.238C24.3741 733.16 22.9354 729.878 22.9183 727.551C22.5097 724.074 28.0009 722.751 29.8228 725.372C31.9682 729.356 33.8156 736.891 26.6302 734.238Z" fill="#7FA6A7"/>
<path d="M34.8791 565.839C36.0369 562.704 40.7704 560.704 43.316 563.382C44.2269 565.382 42.2347 569.309 41.3068 571.595C38.1312 575.522 32.3336 569.578 34.8791 565.839Z" fill="#7FA6A7"/>
<path d="M95.4784 853.862C98.6454 855.92 104.894 862.785 98.1431 864.508C92.3199 866.01 87.1012 852.278 95.4784 853.862Z" fill="#7FA6A7"/>
<path d="M111.764 32.1984C110.053 24.2468 118.805 27.096 121.027 33.4475C122.679 36.4927 120.567 39.0806 117.119 38.2234C114.744 37.3825 112.795 34.3047 111.764 32.1903L111.764 32.1984Z" fill="#7FA6A7"/>
<path d="M157.338 258.102C160.556 254.747 164.183 257.4 163.366 262.144C163.91 266.283 162.608 269.173 157.977 266.699C156.027 265.091 156.265 260.429 157.338 258.102Z" fill="#7FA6A7"/>
<path d="M46.6122 648.557C49.6856 644.238 53.3123 648.851 52.8781 653.031C53.091 655.072 53.4911 657.929 50.6306 658.125C48.7831 658.337 46.6803 659.031 46.1695 657.259C45.9482 654.655 45.7438 650.908 46.6122 648.557Z" fill="#7FA6A7"/>
<path d="M167.221 179.704C172.278 177.589 174.39 185.476 173.164 189.157C172.202 191.051 168.141 191.419 167.221 189.304C166.753 186.659 165.595 181.843 167.221 179.704Z" fill="#7FA6A7"/>
<path d="M137.935 334.964C139.425 333.789 143.452 333.732 143.92 335.969C144.005 338.312 143.631 342.883 142.311 344.426C136.488 346.655 134.368 338.401 137.935 334.964Z" fill="#7FA6A7"/>
<path d="M152.298 850.369C148.773 849.43 143.546 837.887 150.221 838.866C154.222 839.83 159.892 851.112 152.298 850.369Z" fill="#7FA6A7"/>
<path d="M116.864 265.703C114.319 263.148 114.642 256.494 118.235 254.804C122.381 253.784 122.441 258.854 122.126 261.58C122.568 265.924 120.372 268.291 116.864 265.703Z" fill="#7FA6A7"/>
<path d="M110.071 850.49C112.694 852.833 117.061 859.323 110.616 859.707C103.746 859.601 100.63 846.547 110.071 850.49Z" fill="#7FA6A7"/>
<path d="M154.17 111.854C151.548 110.294 150.501 105.347 152.135 102.865C158.767 96.5463 162.879 115.658 154.17 111.854Z" fill="#7FA6A7"/>
<path d="M81.0831 786.045C83.3902 778.599 93.1552 787.718 91.0268 791.808C87.5278 796.821 81.1171 789.996 81.0831 786.045Z" fill="#7FA6A7"/>
<path d="M141.774 189.435C140.174 188.243 140.004 185.149 140.31 183.1C140.591 180.855 142.515 178.577 144.95 179.573C146.61 180.136 147.223 182.177 147.197 184.128C147.717 188.733 146.576 191.925 141.774 189.435Z" fill="#7FA6A7"/>
<path d="M76.7907 654.238C77.8719 646.45 85.9767 647.07 83.8824 655.536C84.0357 661.88 75.2838 660.043 76.7907 654.238Z" fill="#7FA6A7"/>
<path d="M73.6507 487.876C75.3704 482.479 84.1904 483.328 81.9087 489.664C80.4019 496.211 71.6415 494.154 73.6507 487.876Z" fill="#7FA6A7"/>
<path d="M122.959 332.474C124.245 331.021 127.165 331.47 128.425 332.793C129.66 334.589 129.174 339.56 128.127 341.822C127.123 342.867 122.917 342.059 122.142 340.891C121.419 338.622 121.87 334.842 122.968 332.474L122.959 332.474Z" fill="#7FA6A7"/>
<path d="M71.0876 788.16C74.7144 787.736 81.4485 796.733 76.1702 798.349C71.3771 799.541 64.379 789.948 71.0876 788.16Z" fill="#7FA6A7"/>
<path d="M67.018 578.281C61.7056 574.705 68.7718 563.064 73.6074 569.432C73.1222 572.46 71.7856 581.041 67.018 578.281Z" fill="#7FA6A7"/>
<path d="M170.985 259.858C176.868 256.69 178.664 266.887 174.961 269.14C169.231 271.793 167.937 262.739 170.985 259.858Z" fill="#7FA6A7"/>
<path d="M54.0605 722.782C54.0605 720.268 56.0782 718.594 58.5897 718.79C62.0036 718.692 62.242 722.684 62.7613 725.125C62.8379 731.485 53.0729 727.844 54.0605 722.782Z" fill="#7FA6A7"/>
<path d="M91.681 582.772C90.1911 580.045 94.7713 569.326 98.5769 574.241C101.386 577.841 96.142 587.785 91.681 582.772Z" fill="#7FA6A7"/>
<path d="M102.367 499.296C98.5275 495.99 103.508 487.622 108.258 491.475C110.983 494.88 107.475 503.354 102.367 499.296Z" fill="#7FA6A7"/>
<path d="M150.467 337.863C156.188 334.728 157.814 346.108 153.847 347.962C148.083 349.423 148.773 340.802 150.467 337.863Z" fill="#7FA6A7"/>
<path d="M62.2087 648.696C67.9043 644.557 70.288 653.431 66.6528 656.998C60.174 660.844 59.876 652.435 62.2087 648.696Z" fill="#7FA6A7"/>
<path d="M145.197 266.683C140.08 264.928 143.213 252.413 148.696 257.327C149.505 260.536 150.927 267.769 145.197 266.683Z" fill="#7FA6A7"/>
<path d="M108.326 777.897C110.344 771.056 120.006 780.469 116.814 784.175C112.608 788.192 108.871 781.318 108.326 777.897Z" fill="#7FA6A7"/>
<path d="M100.153 788.96C95.4534 788.438 91.5968 779.205 98.7651 779.678C102.749 780.47 106.93 789.434 100.153 788.96Z" fill="#7FA6A7"/>
<path d="M81.9077 571.718C84.4447 569.35 88.6078 571.375 87.3393 575.016C86.6327 579.417 82.1205 584.543 79.7027 578.339C79.3536 576.192 80.2305 573.228 81.8992 571.71L81.9077 571.718Z" fill="#7FA6A7"/>
<path d="M59.9432 792.83C61.5608 794.389 63.9531 797.606 63.9275 800.047C59.0067 808.17 49.0289 791.32 59.9432 792.83Z" fill="#7FA6A7"/>
<path d="M140.839 429.242C138.429 425.691 144.133 416.286 147.377 422.777C148.279 426.385 145.163 433.847 140.839 429.242Z" fill="#7FA6A7"/>
<path d="M162.208 342.778C168.55 340.37 167.043 348.085 166.473 351.448C165.46 352.542 161.578 352.077 160.514 350.689C160.343 348.444 160.624 344.37 162.208 342.77L162.208 342.778Z" fill="#7FA6A7"/>
<path d="M132.342 845.079C135.952 835.176 147.632 855.333 135.824 850.9C133.96 849.773 132.163 847.234 132.342 845.079Z" fill="#7FA6A7"/>
<path d="M130.997 425.371C128.111 422.359 131.559 413.46 136.25 417.95C138.897 420.816 135.628 429.568 130.997 425.371Z" fill="#7FA6A7"/>
<path d="M124.066 854.704C121.921 854.32 119.784 851.961 118.992 850.034C117.987 847.871 119.86 845.838 122.099 845.74C124.253 845.405 125.752 848.695 126.986 850.442C129.149 852.924 127.225 855.169 124.066 854.704Z" fill="#7FA6A7"/>
<g filter="url(#filter0_g_387_2410)">
<path d="M92.8571 733.326C85.8413 729.033 57.0167 736.637 48.2851 739.033C40.7983 741.171 35.8795 740.422 37.3915 749.099C39.6486 756.901 44.5912 788.883 57.8879 781.063C67.5246 777.466 85.1618 773.587 93.4397 770.492C102.028 767.88 102.432 761.544 99.4738 753.102C97.2702 747.204 96.7543 737.757 92.8571 733.326Z" fill="#7FA6A7"/>
</g>
<g filter="url(#filter1_g_387_2410)">
<path d="M48.039 638.086C63.1538 639.298 81.1466 649.83 81.9015 626.27C84.8858 597.095 97.3887 589.19 59.7195 584.589C52.4075 583.784 43.7675 579.986 36.681 581.989C29.4841 585.417 27.4739 608.315 25.6772 616.116C21.7552 634.366 32.2332 635.625 48.0279 638.081L48.039 638.086Z" fill="#7FA6A7"/>
</g>
<g filter="url(#filter2_g_387_2410)">
<path d="M108.593 353.952C98.9325 361.262 98.0775 377.415 97.6737 389.175C98.2597 396.746 109.31 397.176 115.109 399.711C121.839 401.782 129.813 405.294 136.455 405.956C143.925 406.467 148.688 402.174 151.197 394.832C152.949 390.23 155.157 383.826 156.871 378.95C159.768 371.389 159.371 366.23 151.3 361.961C146.322 359.36 138.168 357.694 131.52 355.837C120.706 352.818 115.154 348.632 109.407 353.25L108.593 353.952Z" fill="#7FA6A7"/>
</g>
<g filter="url(#filter3_g_387_2410)">
<path d="M150.442 123.376C145.631 123.198 140.834 124.204 136.068 124.77C131.411 125.412 123.863 126.789 119.413 127.787C100.749 131.838 111.535 150.434 113.955 163.677C115.547 173.044 124.168 171.237 131.487 170.906C139.389 170.439 145.295 170.13 152.596 169.685C168.098 169.309 167.559 159.526 165.259 146.15C163.133 135.26 164.945 123.723 150.663 123.387L150.43 123.377L150.442 123.376Z" fill="#7FA6A7"/>
</g>
</g>
<defs>
<filter id="filter0_g_387_2410" x="35.4091" y="730.327" width="67.4376" height="53.668" filterUnits="userSpaceOnUse" color-interpolation-filters="sRGB">
<feFlood flood-opacity="0" result="BackgroundImageFix"/>
<feBlend mode="normal" in="SourceGraphic" in2="BackgroundImageFix" result="shape"/>
<feTurbulence type="fractalNoise" baseFrequency="0.0099999997764825821 0.0099999997764825821" numOctaves="3" seed="6952" />
<feDisplacementMap in="shape" scale="3.4200000762939453" xChannelSelector="R" yChannelSelector="G" result="displacedImage" width="100%" height="100%" />
<feMerge result="effect1_texture_387_2410">
<feMergeNode in="displacedImage"/>
</feMerge>
</filter>
<filter id="filter1_g_387_2410" x="23.1416" y="579.702" width="64.8555" height="63.4825" filterUnits="userSpaceOnUse" color-interpolation-filters="sRGB">
<feFlood flood-opacity="0" result="BackgroundImageFix"/>
<feBlend mode="normal" in="SourceGraphic" in2="BackgroundImageFix" result="shape"/>
<feTurbulence type="fractalNoise" baseFrequency="0.0099999997764825821 0.0099999997764825821" numOctaves="3" seed="6952" />
<feDisplacementMap in="shape" scale="3.4200000762939453" xChannelSelector="R" yChannelSelector="G" result="displacedImage" width="100%" height="100%" />
<feMerge result="effect1_texture_387_2410">
<feMergeNode in="displacedImage"/>
</feMerge>
</filter>
<filter id="filter2_g_387_2410" x="95.9638" y="349.485" width="64.2618" height="58.2227" filterUnits="userSpaceOnUse" color-interpolation-filters="sRGB">
<feFlood flood-opacity="0" result="BackgroundImageFix"/>
<feBlend mode="normal" in="SourceGraphic" in2="BackgroundImageFix" result="shape"/>
<feTurbulence type="fractalNoise" baseFrequency="0.0099999997764825821 0.0099999997764825821" numOctaves="3" seed="6952" />
<feDisplacementMap in="shape" scale="3.4200000762939453" xChannelSelector="R" yChannelSelector="G" result="displacedImage" width="100%" height="100%" />
<feMerge result="effect1_texture_387_2410">
<feMergeNode in="displacedImage"/>
</feMerge>
</filter>
<filter id="filter3_g_387_2410" x="106.95" y="121.645" width="61.2286" height="51.3282" filterUnits="userSpaceOnUse" color-interpolation-filters="sRGB">
<feFlood flood-opacity="0" result="BackgroundImageFix"/>
<feBlend mode="normal" in="SourceGraphic" in2="BackgroundImageFix" result="shape"/>
<feTurbulence type="fractalNoise" baseFrequency="0.0099999997764825821 0.0099999997764825821" numOctaves="3" seed="6952" />
<feDisplacementMap in="shape" scale="3.4200000762939453" xChannelSelector="R" yChannelSelector="G" result="displacedImage" width="100%" height="100%" />
<feMerge result="effect1_texture_387_2410">
<feMergeNode in="displacedImage"/>
</feMerge>
</filter>
<clipPath id="clip0_387_2410">
<rect width="204" height="889" fill="white" transform="translate(204 889) rotate(180)"/>
</clipPath>
</defs>
</svg>
